<svg width="24" height="24" viewBox="0 0 24 24" fill="none" xmlns="http://www.w3.org/2000/svg">
<path fill-rule="evenodd" clip-rule="evenodd" d="M14.8181 5.18204L14.818 5.18198L18 2L22.5962 6.59619L20.4748 8.71757L20.4749 8.71763L10.5102 18.6823L10.2218 18.9707L10.1677 18.9165C10.1421 18.9277 10.116 18.938 10.0896 18.9473L5.68714 20.4928C4.68619 20.8442 3.75215 19.9101 4.10353 18.9092L5.64901 14.5068C5.6583 14.4803 5.66857 14.4543 5.6798 14.4286L5.62564 14.3745L5.91404 14.0861L14.8181 5.18204ZM18 2.3536L16.0554 4.29819L16.0554 4.29815L18 2.35355L18 2.3536ZM15.7019 6.06591L7.57017 14.1977L7.57019 14.1977L15.702 6.06592L15.7019 6.06591ZM19.2375 9.60144L10.8317 18.0072L10.8317 18.0072L19.2375 9.60146L19.2375 9.60144ZM16.9393 5.18198L19.4142 7.65685L20.4749 6.59619L18 4.12132L16.9393 5.18198ZM18 3.76781L18.0001 3.76777L20.8285 6.59619L19.591 7.83373L19.5909 7.83368L20.8284 6.59619L18 3.76781ZM9.97403 18.7229L5.60433 20.2569C5.45556 20.3091 5.30883 20.3261 5.17029 20.3141C5.30883 20.3261 5.45556 20.3091 5.60433 20.2569L9.97405 18.7229L9.97403 18.7229ZM10.2117 18.607L10.2117 18.607L10.2117 18.6069L10.2117 18.607L10.2117 18.607ZM10.3335 18.5055L10.3335 18.5055L10.3286 18.5103L10.3335 18.5055ZM15.8787 6.24275L18.3536 8.71763L10.2218 16.8494L7.74696 14.3745L15.8787 6.24275ZM8.94451 17.7513L5.70934 18.887L6.84505 15.6518L8.94451 17.7513Z" fill="#7000FF"/>
</svg>
